<svg width="259" height="17" viewBox="0 0 259 17" fill="none" xmlns="http://www.w3.org/2000/svg">
<g clip-path="url(#clip0_44_217)">
<path d="M0 0.315918V4.40498H31.2254V6.44951H0V10.5386V12.5652H4.1642V10.5386H24.9913L31.2254 16.6602V16.6722H31.2376H35.3896V14.9614L31.2254 10.8783L30.8794 10.5386H31.2254H35.3896V6.44951V4.40498V0.315918H31.2254H0Z" fill="#1E2424"/>
<path d="M37.4838 0.315918V4.40498V6.44355V10.5326H41.648H68.7092V12.5771H37.4656V16.6662H68.7092V16.6722H72.8734V10.5326V6.44355H68.7092H41.648V4.40498H72.8734V0.315918H41.648H37.4838Z" fill="#1E2424"/>
<path d="M77.0133 0.315918C75.8478 0.315918 74.9009 1.24579 74.9009 2.39025C74.9009 3.53471 75.8478 4.46459 77.0133 4.46459C78.1788 4.46459 79.1258 3.53471 79.1258 2.39025C79.1258 1.24579 78.1788 0.315918 77.0133 0.315918ZM77.0133 4.20231C75.9935 4.20231 75.168 3.38569 75.168 2.39025C75.168 1.39481 75.9935 0.57819 77.0133 0.57819C78.0331 0.57819 78.8587 1.38885 78.8587 2.39025C78.8587 3.39165 78.0271 4.20231 77.0133 4.20231Z" fill="#1E2424"/>
<path d="M77.6751 1.93724C77.6751 1.61536 77.408 1.35309 77.0802 1.35309H76.4854C76.4125 1.35309 76.3518 1.4127 76.3518 1.48422V3.42742H76.6128V2.53331L76.8799 2.64657C77.2016 2.78366 77.408 3.08766 77.408 3.43338H77.6691C77.6691 3.06382 77.4809 2.72406 77.1774 2.51543C77.4566 2.46774 77.6691 2.22932 77.6691 1.9432M77.0742 2.26508H76.6128V1.61536H77.0742C77.2563 1.61536 77.402 1.75842 77.402 1.93724C77.402 2.11606 77.2563 2.25912 77.0742 2.25912" fill="#1E2424"/>
<path d="M98.0044 16.6722L92.9904 10.4611H90.0949V16.6722H86.3313V0.327843H95.807C97.015 0.327843 98.0773 0.542429 99.006 0.965641C99.9287 1.38885 100.645 1.99089 101.161 2.75982C101.671 3.52875 101.926 4.4169 101.926 5.41831C101.926 6.27665 101.732 7.05155 101.349 7.73703C100.967 8.42847 100.42 9.0007 99.7102 9.44776C99.006 9.90077 98.1744 10.1988 97.2274 10.3538L102.418 16.6722H98.0044ZM90.0949 3.2486V7.58801H95.3517C96.2076 7.58801 96.8875 7.39727 97.3792 7.00982C97.8709 6.62237 98.1137 6.09783 98.1137 5.41831C98.1137 4.73878 97.8648 4.21424 97.3792 3.82679C96.8875 3.43934 96.2137 3.2486 95.3517 3.2486H90.0949Z" fill="#1E2424"/>
<path d="M108.439 15.933C106.97 15.2237 105.829 14.2283 105.016 12.9407C104.208 11.6532 103.802 10.175 103.802 8.49404C103.802 6.81312 104.208 5.33486 105.016 4.04734C105.829 2.75982 106.97 1.76438 108.439 1.05505C109.914 0.345724 111.602 -0.00595856 113.508 -0.00595856C115.414 -0.00595856 117.114 0.345724 118.583 1.05505C120.052 1.76438 121.193 2.75982 122.006 4.04734C122.82 5.33486 123.226 6.81312 123.226 8.49404C123.226 10.175 122.82 11.6532 122.006 12.9407C121.193 14.2283 120.052 15.2237 118.583 15.933C117.114 16.6424 115.42 16.994 113.508 16.994C111.596 16.994 109.908 16.6424 108.439 15.933ZM116.646 13.06C117.539 12.6367 118.224 12.0407 118.698 11.2539C119.177 10.473 119.414 9.55505 119.414 8.49404C119.414 7.43303 119.177 6.51508 118.698 5.73422C118.218 4.95337 117.539 4.35133 116.646 3.93408C115.754 3.51087 114.71 3.30225 113.514 3.30225C112.318 3.30225 111.274 3.51087 110.388 3.93408C109.501 4.3573 108.816 4.95933 108.336 5.73422C107.856 6.51508 107.614 7.43303 107.614 8.49404C107.614 9.55505 107.856 10.473 108.336 11.2539C108.816 12.0347 109.501 12.6367 110.388 13.06C111.274 13.4832 112.318 13.6918 113.514 13.6918C114.71 13.6918 115.76 13.4832 116.646 13.06Z" fill="#1E2424"/>
<path d="M123.736 0.327843H140.739V3.59432H134.123V16.6722H130.353V3.59432H123.736V0.327843Z" fill="#1E2424"/>
<path d="M146.985 9.9127L146.385 13.5964H157.281V16.6722H142.287L143.586 8.5L142.287 0.327843H157.171V3.39762H146.385L146.985 7.08135H156.595V9.9127H146.985Z" fill="#1E2424"/>
<path d="M174.259 12.4997V0.327843H177.907V16.6722H173.148L163.794 4.27981V16.6722H160.146V0.327843H165.026L174.259 12.4997Z" fill="#1E2424"/>
<path d="M184.269 11.3313C184.342 11.8917 184.585 12.3745 184.997 12.7858C185.41 13.1971 185.957 13.513 186.649 13.7395C187.341 13.966 188.136 14.0792 189.04 14.0792C189.945 14.0792 190.655 13.9958 191.298 13.8289C191.936 13.662 192.427 13.4176 192.773 13.1017C193.119 12.7798 193.289 12.4043 193.289 11.9691C193.289 11.6055 193.192 11.3075 193.004 11.075C192.816 10.8426 192.5 10.6518 192.051 10.5028C191.602 10.3538 190.989 10.2346 190.206 10.1511L186.855 9.78156C185.422 9.62658 184.251 9.35835 183.34 8.96494C182.436 8.57153 181.768 8.05891 181.343 7.42111C180.918 6.78331 180.706 6.00245 180.706 5.09046C180.706 4.04734 181.028 3.1413 181.665 2.37833C182.302 1.61536 183.213 1.03121 184.39 0.625877C185.562 0.202665 186.94 0 188.506 0C190.072 0 191.408 0.220547 192.616 0.661641C193.824 1.10274 194.783 1.72265 195.487 2.52139C196.191 3.32013 196.573 4.24404 196.64 5.28717H192.822C192.755 4.81031 192.537 4.39306 192.166 4.03541C191.796 3.67777 191.292 3.40358 190.649 3.20687C190.012 3.01017 189.265 2.9148 188.421 2.9148C187.626 2.9148 186.928 2.99229 186.333 3.15323C185.744 3.31417 185.289 3.54663 184.967 3.84467C184.651 4.14867 184.488 4.50631 184.488 4.92952C184.488 5.26332 184.579 5.53752 184.761 5.75806C184.943 5.97861 185.24 6.15743 185.659 6.30049C186.078 6.44355 186.643 6.56276 187.365 6.64621L190.837 7.0575C192.385 7.23037 193.605 7.49264 194.51 7.85028C195.414 8.20196 196.064 8.67286 196.464 9.26297C196.865 9.85309 197.065 10.6101 197.065 11.54C197.065 12.6308 196.725 13.5845 196.057 14.4071C195.384 15.2297 194.437 15.8615 193.211 16.3145C191.984 16.7675 190.57 16.9881 188.967 16.9881C187.365 16.9881 185.866 16.7497 184.597 16.2788C183.322 15.8079 182.327 15.1403 181.592 14.2879C180.864 13.4295 180.475 12.44 180.433 11.3254H184.263L184.269 11.3313Z" fill="#1E2424"/>
<path d="M197.648 0.327843H214.651V3.59432H208.034V16.6722H204.265V3.59432H197.648V0.327843Z" fill="#1E2424"/>
<path d="M220.897 9.9127L220.296 13.5964H231.192V16.6722H216.198L217.498 8.5L216.198 0.327843H231.083V3.39762H220.296L220.897 7.08135H230.506V9.9127H220.897Z" fill="#1E2424"/>
<path d="M237.821 0.327843H234.057V16.6722H237.821V0.327843Z" fill="#1E2424"/>
<path d="M255.346 12.4997V0.327843H259V16.6722H254.241L244.887 4.27981V16.6722H241.232V0.327843H246.113L255.346 12.4997Z" fill="#1E2424"/>
</g>
<defs>
<clipPath id="clip0_44_217">
<rect width="259" height="17" fill="white"/>
</clipPath>
</defs>
</svg>
